<mxfile host="app.diagrams.net" agent="Mozilla/5.0 (Windows NT 10.0; Win64; x64) AppleWebKit/537.36 (KHTML, like Gecko) Chrome/132.0.0.0 Safari/537.36" version="26.0.9">
  <diagram name="Page-1" id="13e1069c-82ec-6db2-03f1-153e76fe0fe0">
    <mxGraphModel dx="1313" dy="761" grid="1" gridSize="10" guides="1" tooltips="1" connect="1" arrows="1" fold="1" page="1" pageScale="1" pageWidth="1100" pageHeight="850" background="none" math="0" shadow="0">
      <root>
        <mxCell id="0" />
        <mxCell id="1" parent="0" />
        <mxCell id="7baba1c4bc27f4b0-2" value=":Web Portal" style="shape=umlLifeline;perimeter=lifelinePerimeter;whiteSpace=wrap;html=1;container=1;collapsible=0;recursiveResize=0;outlineConnect=0;rounded=1;shadow=0;comic=0;labelBackgroundColor=none;strokeWidth=1;fontFamily=Verdana;fontSize=12;align=center;" parent="1" vertex="1">
          <mxGeometry x="253" y="140" width="100" height="1220" as="geometry" />
        </mxCell>
        <mxCell id="7baba1c4bc27f4b0-10" value="" style="html=1;points=[];perimeter=orthogonalPerimeter;rounded=0;shadow=0;comic=0;labelBackgroundColor=none;strokeWidth=1;fontFamily=Verdana;fontSize=12;align=center;" parent="7baba1c4bc27f4b0-2" vertex="1">
          <mxGeometry x="45" y="100" width="10" height="190" as="geometry" />
        </mxCell>
        <mxCell id="7baba1c4bc27f4b0-3" value=":Online Order Manager&amp;nbsp;" style="shape=umlLifeline;perimeter=lifelinePerimeter;whiteSpace=wrap;html=1;container=1;collapsible=0;recursiveResize=0;outlineConnect=0;rounded=1;shadow=0;comic=0;labelBackgroundColor=none;strokeWidth=1;fontFamily=Verdana;fontSize=12;align=center;" parent="1" vertex="1">
          <mxGeometry x="403" y="140" width="100" height="1220" as="geometry" />
        </mxCell>
        <mxCell id="7baba1c4bc27f4b0-14" value="checkDetails()" style="html=1;verticalAlign=bottom;endArrow=block;labelBackgroundColor=none;fontFamily=Verdana;fontSize=12;edgeStyle=elbowEdgeStyle;elbow=vertical;entryX=0.102;entryY=0.048;entryDx=0;entryDy=0;entryPerimeter=0;" parent="7baba1c4bc27f4b0-3" target="7baba1c4bc27f4b0-16" edge="1">
          <mxGeometry relative="1" as="geometry">
            <mxPoint x="-95" y="120" as="sourcePoint" />
            <mxPoint x="190" y="120" as="targetPoint" />
          </mxGeometry>
        </mxCell>
        <mxCell id="ptQBcOdwvcAxHng0FQHU-22" value="" style="html=1;points=[];perimeter=orthogonalPerimeter;rounded=0;shadow=0;comic=0;labelBackgroundColor=none;strokeWidth=1;fontFamily=Verdana;fontSize=12;align=center;" vertex="1" parent="7baba1c4bc27f4b0-3">
          <mxGeometry x="45" y="440" width="10" height="50" as="geometry" />
        </mxCell>
        <mxCell id="ptQBcOdwvcAxHng0FQHU-27" value="addBookStatus" style="html=1;verticalAlign=bottom;endArrow=block;labelBackgroundColor=none;fontFamily=Verdana;fontSize=12;edgeStyle=elbowEdgeStyle;elbow=vertical;dashed=1;entryX=1.245;entryY=0.994;entryDx=0;entryDy=0;entryPerimeter=0;" edge="1" parent="7baba1c4bc27f4b0-3">
          <mxGeometry relative="1" as="geometry">
            <mxPoint x="212.5" y="580.13" as="sourcePoint" />
            <mxPoint x="-233" y="580" as="targetPoint" />
          </mxGeometry>
        </mxCell>
        <mxCell id="7baba1c4bc27f4b0-4" value=":Online&amp;nbsp;&lt;span style=&quot;background-color: transparent; color: light-dark(rgb(0, 0, 0), rgb(255, 255, 255));&quot;&gt;Inventory&lt;/span&gt;&lt;div&gt;Manager&lt;/div&gt;" style="shape=umlLifeline;perimeter=lifelinePerimeter;whiteSpace=wrap;html=1;container=1;collapsible=0;recursiveResize=0;outlineConnect=0;rounded=1;shadow=0;comic=0;labelBackgroundColor=none;strokeWidth=1;fontFamily=Verdana;fontSize=12;align=center;" parent="1" vertex="1">
          <mxGeometry x="553" y="140" width="135" height="1220" as="geometry" />
        </mxCell>
        <mxCell id="7baba1c4bc27f4b0-16" value="" style="html=1;points=[];perimeter=orthogonalPerimeter;rounded=0;shadow=0;comic=0;labelBackgroundColor=none;strokeWidth=1;fontFamily=Verdana;fontSize=12;align=center;" parent="7baba1c4bc27f4b0-4" vertex="1">
          <mxGeometry x="62.5" y="110" width="10" height="180" as="geometry" />
        </mxCell>
        <mxCell id="ptQBcOdwvcAxHng0FQHU-10" value="updateDB()" style="html=1;verticalAlign=bottom;endArrow=block;labelBackgroundColor=none;fontFamily=Verdana;fontSize=12;edgeStyle=elbowEdgeStyle;elbow=vertical;entryX=0.04;entryY=0.196;entryDx=0;entryDy=0;entryPerimeter=0;" edge="1" parent="7baba1c4bc27f4b0-4" target="ptQBcOdwvcAxHng0FQHU-11">
          <mxGeometry relative="1" as="geometry">
            <mxPoint x="72.5" y="250.06" as="sourcePoint" />
            <mxPoint x="234" y="250" as="targetPoint" />
          </mxGeometry>
        </mxCell>
        <mxCell id="ptQBcOdwvcAxHng0FQHU-13" value="manageStatus" style="html=1;verticalAlign=bottom;endArrow=block;labelBackgroundColor=none;fontFamily=Verdana;fontSize=12;edgeStyle=elbowEdgeStyle;elbow=vertical;dashed=1;entryX=1.245;entryY=0.994;entryDx=0;entryDy=0;entryPerimeter=0;" edge="1" parent="7baba1c4bc27f4b0-4" target="7baba1c4bc27f4b0-9">
          <mxGeometry relative="1" as="geometry">
            <mxPoint x="62.5" y="289.13" as="sourcePoint" />
            <mxPoint x="-240" y="290" as="targetPoint" />
          </mxGeometry>
        </mxCell>
        <mxCell id="ptQBcOdwvcAxHng0FQHU-17" value="" style="html=1;points=[];perimeter=orthogonalPerimeter;rounded=0;shadow=0;comic=0;labelBackgroundColor=none;strokeWidth=1;fontFamily=Verdana;fontSize=12;align=center;" vertex="1" parent="7baba1c4bc27f4b0-4">
          <mxGeometry x="-255" y="390" width="10" height="190" as="geometry" />
        </mxCell>
        <mxCell id="ptQBcOdwvcAxHng0FQHU-18" value="" style="html=1;points=[];perimeter=orthogonalPerimeter;rounded=0;shadow=0;comic=0;labelBackgroundColor=none;strokeWidth=1;fontFamily=Verdana;fontSize=12;align=center;" vertex="1" parent="7baba1c4bc27f4b0-4">
          <mxGeometry x="62.5" y="400" width="10" height="190" as="geometry" />
        </mxCell>
        <mxCell id="ptQBcOdwvcAxHng0FQHU-16" value="addBook()" style="html=1;verticalAlign=bottom;endArrow=block;entryX=0;entryY=0;labelBackgroundColor=none;fontFamily=Verdana;fontSize=12;edgeStyle=elbowEdgeStyle;elbow=vertical;" edge="1" parent="7baba1c4bc27f4b0-4">
          <mxGeometry relative="1" as="geometry">
            <mxPoint x="-393" y="390.33000000000004" as="sourcePoint" />
            <mxPoint x="-258" y="390.33000000000004" as="targetPoint" />
          </mxGeometry>
        </mxCell>
        <mxCell id="ptQBcOdwvcAxHng0FQHU-19" value="dispatch" style="html=1;verticalAlign=bottom;endArrow=block;labelBackgroundColor=none;fontFamily=Verdana;fontSize=12;edgeStyle=elbowEdgeStyle;elbow=vertical;entryX=0.102;entryY=0.048;entryDx=0;entryDy=0;entryPerimeter=0;" edge="1" parent="7baba1c4bc27f4b0-4">
          <mxGeometry relative="1" as="geometry">
            <mxPoint x="-243" y="401" as="sourcePoint" />
            <mxPoint x="66" y="400" as="targetPoint" />
          </mxGeometry>
        </mxCell>
        <mxCell id="ptQBcOdwvcAxHng0FQHU-23" value="sales / lease config" style="html=1;verticalAlign=bottom;endArrow=block;labelBackgroundColor=none;fontFamily=Verdana;fontSize=12;edgeStyle=elbowEdgeStyle;elbow=vertical;exitX=-0.261;exitY=0.211;exitDx=0;exitDy=0;exitPerimeter=0;" edge="1" parent="7baba1c4bc27f4b0-4" source="ptQBcOdwvcAxHng0FQHU-18">
          <mxGeometry relative="1" as="geometry">
            <mxPoint x="57" y="440" as="sourcePoint" />
            <mxPoint x="-98" y="440.47" as="targetPoint" />
          </mxGeometry>
        </mxCell>
        <mxCell id="ptQBcOdwvcAxHng0FQHU-25" value="status" style="html=1;verticalAlign=bottom;endArrow=block;labelBackgroundColor=none;fontFamily=Verdana;fontSize=12;edgeStyle=elbowEdgeStyle;elbow=vertical;entryX=0.04;entryY=0.196;entryDx=0;entryDy=0;entryPerimeter=0;exitX=1.332;exitY=0.911;exitDx=0;exitDy=0;exitPerimeter=0;dashed=1;" edge="1" parent="7baba1c4bc27f4b0-4" source="ptQBcOdwvcAxHng0FQHU-22">
          <mxGeometry relative="1" as="geometry">
            <mxPoint x="-110" y="484.94999999999993" as="sourcePoint" />
            <mxPoint x="62.5" y="484.89" as="targetPoint" />
          </mxGeometry>
        </mxCell>
        <mxCell id="ptQBcOdwvcAxHng0FQHU-42" value="" style="html=1;points=[];perimeter=orthogonalPerimeter;rounded=0;shadow=0;comic=0;labelBackgroundColor=none;strokeWidth=1;fontFamily=Verdana;fontSize=12;align=center;" vertex="1" parent="7baba1c4bc27f4b0-4">
          <mxGeometry x="62.5" y="740" width="10" height="50" as="geometry" />
        </mxCell>
        <mxCell id="ptQBcOdwvcAxHng0FQHU-43" value="checkInventory()" style="html=1;verticalAlign=bottom;endArrow=block;labelBackgroundColor=none;fontFamily=Verdana;fontSize=12;edgeStyle=elbowEdgeStyle;elbow=vertical;exitX=-0.127;exitY=0.209;exitDx=0;exitDy=0;exitPerimeter=0;" edge="1" parent="7baba1c4bc27f4b0-4" source="ptQBcOdwvcAxHng0FQHU-38">
          <mxGeometry relative="1" as="geometry">
            <mxPoint x="230.5" y="740" as="sourcePoint" />
            <mxPoint x="72.5" y="740.47" as="targetPoint" />
          </mxGeometry>
        </mxCell>
        <mxCell id="7baba1c4bc27f4b0-5" value=":Database" style="shape=umlLifeline;perimeter=lifelinePerimeter;whiteSpace=wrap;html=1;container=1;collapsible=0;recursiveResize=0;outlineConnect=0;rounded=1;shadow=0;comic=0;labelBackgroundColor=none;strokeWidth=1;fontFamily=Verdana;fontSize=12;align=center;" parent="1" vertex="1">
          <mxGeometry x="753" y="140" width="100" height="1220" as="geometry" />
        </mxCell>
        <mxCell id="ptQBcOdwvcAxHng0FQHU-4" value="" style="html=1;points=[];perimeter=orthogonalPerimeter;rounded=0;shadow=0;comic=0;labelBackgroundColor=none;strokeWidth=1;fontFamily=Verdana;fontSize=12;align=center;" vertex="1" parent="7baba1c4bc27f4b0-5">
          <mxGeometry x="45" y="120" width="10" height="50" as="geometry" />
        </mxCell>
        <mxCell id="ptQBcOdwvcAxHng0FQHU-6" value="returnData" style="html=1;verticalAlign=bottom;endArrow=open;dashed=1;endSize=8;labelBackgroundColor=none;fontFamily=Verdana;fontSize=12;" edge="1" parent="7baba1c4bc27f4b0-5">
          <mxGeometry relative="1" as="geometry">
            <mxPoint x="-117.5" y="169.39" as="targetPoint" />
            <mxPoint x="42.5" y="169.39" as="sourcePoint" />
          </mxGeometry>
        </mxCell>
        <mxCell id="ptQBcOdwvcAxHng0FQHU-11" value="" style="html=1;points=[];perimeter=orthogonalPerimeter;rounded=0;shadow=0;comic=0;labelBackgroundColor=none;strokeWidth=1;fontFamily=Verdana;fontSize=12;align=center;" vertex="1" parent="7baba1c4bc27f4b0-5">
          <mxGeometry x="45" y="240" width="10" height="50" as="geometry" />
        </mxCell>
        <mxCell id="ptQBcOdwvcAxHng0FQHU-20" value="" style="html=1;points=[];perimeter=orthogonalPerimeter;rounded=0;shadow=0;comic=0;labelBackgroundColor=none;strokeWidth=1;fontFamily=Verdana;fontSize=12;align=center;" vertex="1" parent="7baba1c4bc27f4b0-5">
          <mxGeometry x="45" y="530" width="10" height="50" as="geometry" />
        </mxCell>
        <mxCell id="ptQBcOdwvcAxHng0FQHU-21" value="saveData()" style="html=1;verticalAlign=bottom;endArrow=block;labelBackgroundColor=none;fontFamily=Verdana;fontSize=12;edgeStyle=elbowEdgeStyle;elbow=vertical;entryX=0.04;entryY=0.196;entryDx=0;entryDy=0;entryPerimeter=0;" edge="1" parent="7baba1c4bc27f4b0-5">
          <mxGeometry relative="1" as="geometry">
            <mxPoint x="-127.5" y="530.53" as="sourcePoint" />
            <mxPoint x="45" y="530.47" as="targetPoint" />
          </mxGeometry>
        </mxCell>
        <mxCell id="ptQBcOdwvcAxHng0FQHU-26" value="Status" style="html=1;verticalAlign=bottom;endArrow=open;dashed=1;endSize=8;labelBackgroundColor=none;fontFamily=Verdana;fontSize=12;entryX=0.75;entryY=0.999;entryDx=0;entryDy=0;entryPerimeter=0;" edge="1" parent="7baba1c4bc27f4b0-5">
          <mxGeometry relative="1" as="geometry">
            <mxPoint x="-127.5" y="580.25" as="targetPoint" />
            <mxPoint x="45" y="580" as="sourcePoint" />
          </mxGeometry>
        </mxCell>
        <mxCell id="ptQBcOdwvcAxHng0FQHU-30" value="orderStatus" style="html=1;verticalAlign=bottom;endArrow=block;labelBackgroundColor=none;fontFamily=Verdana;fontSize=12;edgeStyle=elbowEdgeStyle;elbow=vertical;dashed=1;entryX=1.245;entryY=0.994;entryDx=0;entryDy=0;entryPerimeter=0;" edge="1" parent="7baba1c4bc27f4b0-5" source="7baba1c4bc27f4b0-3">
          <mxGeometry relative="1" as="geometry">
            <mxPoint x="-137.5" y="890.1300000000001" as="sourcePoint" />
            <mxPoint x="-583" y="890" as="targetPoint" />
          </mxGeometry>
        </mxCell>
        <mxCell id="ptQBcOdwvcAxHng0FQHU-31" value="" style="html=1;points=[];perimeter=orthogonalPerimeter;rounded=0;shadow=0;comic=0;labelBackgroundColor=none;strokeWidth=1;fontFamily=Verdana;fontSize=12;align=center;" vertex="1" parent="7baba1c4bc27f4b0-5">
          <mxGeometry x="-455" y="700" width="10" height="170" as="geometry" />
        </mxCell>
        <mxCell id="ptQBcOdwvcAxHng0FQHU-34" value="trackOrder()" style="html=1;verticalAlign=bottom;endArrow=block;entryX=0;entryY=0;labelBackgroundColor=none;fontFamily=Verdana;fontSize=12;edgeStyle=elbowEdgeStyle;elbow=vertical;" edge="1" parent="7baba1c4bc27f4b0-5">
          <mxGeometry relative="1" as="geometry">
            <mxPoint x="-593" y="700.33" as="sourcePoint" />
            <mxPoint x="-458" y="700.33" as="targetPoint" />
          </mxGeometry>
        </mxCell>
        <mxCell id="ptQBcOdwvcAxHng0FQHU-35" value="dispatch" style="html=1;verticalAlign=bottom;endArrow=block;labelBackgroundColor=none;fontFamily=Verdana;fontSize=12;edgeStyle=elbowEdgeStyle;elbow=vertical;" edge="1" parent="7baba1c4bc27f4b0-5">
          <mxGeometry relative="1" as="geometry">
            <mxPoint x="-443" y="711" as="sourcePoint" />
            <mxPoint x="-303" y="710" as="targetPoint" />
          </mxGeometry>
        </mxCell>
        <mxCell id="ptQBcOdwvcAxHng0FQHU-38" value="" style="html=1;points=[];perimeter=orthogonalPerimeter;rounded=0;shadow=0;comic=0;labelBackgroundColor=none;strokeWidth=1;fontFamily=Verdana;fontSize=12;align=center;" vertex="1" parent="7baba1c4bc27f4b0-5">
          <mxGeometry x="45" y="710" width="10" height="150" as="geometry" />
        </mxCell>
        <mxCell id="7baba1c4bc27f4b0-6" value=":Wallet" style="shape=umlLifeline;perimeter=lifelinePerimeter;whiteSpace=wrap;html=1;container=1;collapsible=0;recursiveResize=0;outlineConnect=0;rounded=1;shadow=0;comic=0;labelBackgroundColor=none;strokeWidth=1;fontFamily=Verdana;fontSize=12;align=center;" parent="1" vertex="1">
          <mxGeometry x="913" y="140" width="100" height="1220" as="geometry" />
        </mxCell>
        <mxCell id="ptQBcOdwvcAxHng0FQHU-54" value="" style="html=1;points=[];perimeter=orthogonalPerimeter;rounded=0;shadow=0;comic=0;labelBackgroundColor=none;strokeWidth=1;fontFamily=Verdana;fontSize=12;align=center;" vertex="1" parent="7baba1c4bc27f4b0-6">
          <mxGeometry x="45" y="1040" width="10" height="40" as="geometry" />
        </mxCell>
        <mxCell id="7baba1c4bc27f4b0-8" value=":Book&amp;nbsp;&lt;div&gt;Seller / lender&lt;/div&gt;" style="shape=umlLifeline;perimeter=lifelinePerimeter;whiteSpace=wrap;html=1;container=1;collapsible=0;recursiveResize=0;outlineConnect=0;rounded=1;shadow=0;comic=0;labelBackgroundColor=none;strokeWidth=1;fontFamily=Verdana;fontSize=12;align=center;" parent="1" vertex="1">
          <mxGeometry x="113" y="140" width="100" height="1220" as="geometry" />
        </mxCell>
        <mxCell id="7baba1c4bc27f4b0-9" value="" style="html=1;points=[];perimeter=orthogonalPerimeter;rounded=0;shadow=0;comic=0;labelBackgroundColor=none;strokeWidth=1;fontFamily=Verdana;fontSize=12;align=center;" parent="7baba1c4bc27f4b0-8" vertex="1">
          <mxGeometry x="45" y="100" width="10" height="190" as="geometry" />
        </mxCell>
        <mxCell id="ptQBcOdwvcAxHng0FQHU-33" value="" style="html=1;points=[];perimeter=orthogonalPerimeter;rounded=0;shadow=0;comic=0;labelBackgroundColor=none;strokeWidth=1;fontFamily=Verdana;fontSize=12;align=center;" vertex="1" parent="7baba1c4bc27f4b0-8">
          <mxGeometry x="45" y="700" width="10" height="390" as="geometry" />
        </mxCell>
        <mxCell id="ptQBcOdwvcAxHng0FQHU-46" value="" style="html=1;points=[];perimeter=orthogonalPerimeter;rounded=0;shadow=0;comic=0;labelBackgroundColor=none;strokeWidth=1;fontFamily=Verdana;fontSize=12;align=center;" vertex="1" parent="7baba1c4bc27f4b0-8">
          <mxGeometry x="55" y="910" width="10" height="150" as="geometry" />
        </mxCell>
        <mxCell id="7baba1c4bc27f4b0-11" value="manageBook()" style="html=1;verticalAlign=bottom;endArrow=block;entryX=0;entryY=0;labelBackgroundColor=none;fontFamily=Verdana;fontSize=12;edgeStyle=elbowEdgeStyle;elbow=vertical;" parent="1" source="7baba1c4bc27f4b0-9" target="7baba1c4bc27f4b0-10" edge="1">
          <mxGeometry relative="1" as="geometry">
            <mxPoint x="233" y="250" as="sourcePoint" />
          </mxGeometry>
        </mxCell>
        <mxCell id="ptQBcOdwvcAxHng0FQHU-2" value="" style="shape=umlActor;verticalLabelPosition=bottom;verticalAlign=top;html=1;fontFamily=Verdana;fontSize=12;fontColor=default;labelBackgroundColor=none;" vertex="1" parent="1">
          <mxGeometry x="148" y="60" width="30" height="60" as="geometry" />
        </mxCell>
        <mxCell id="ptQBcOdwvcAxHng0FQHU-3" value="" style="html=1;points=[];perimeter=orthogonalPerimeter;rounded=0;shadow=0;comic=0;labelBackgroundColor=none;strokeWidth=1;fontFamily=Verdana;fontSize=12;align=center;" vertex="1" parent="1">
          <mxGeometry x="625.5" y="260" width="10" height="90" as="geometry" />
        </mxCell>
        <mxCell id="ptQBcOdwvcAxHng0FQHU-5" value="fetchData()" style="html=1;verticalAlign=bottom;endArrow=block;labelBackgroundColor=none;fontFamily=Verdana;fontSize=12;edgeStyle=elbowEdgeStyle;elbow=vertical;entryX=-0.142;entryY=0.007;entryDx=0;entryDy=0;entryPerimeter=0;" edge="1" parent="1" target="ptQBcOdwvcAxHng0FQHU-4">
          <mxGeometry relative="1" as="geometry">
            <mxPoint x="635.5" y="260.06" as="sourcePoint" />
            <mxPoint x="793" y="260" as="targetPoint" />
          </mxGeometry>
        </mxCell>
        <mxCell id="ptQBcOdwvcAxHng0FQHU-8" value="CRUD(Data)" style="html=1;verticalAlign=bottom;endArrow=block;labelBackgroundColor=none;fontFamily=Verdana;fontSize=12;elbow=vertical;edgeStyle=orthogonalEdgeStyle;curved=1;exitX=1.038;exitY=0.345;exitPerimeter=0;entryX=1.104;entryY=0.66;entryDx=0;entryDy=0;entryPerimeter=0;labelPosition=right;verticalLabelPosition=top;align=left;" edge="1" parent="1" target="7baba1c4bc27f4b0-16">
          <mxGeometry relative="1" as="geometry">
            <mxPoint x="635.5033333333334" y="330" as="sourcePoint" />
            <mxPoint x="643" y="368" as="targetPoint" />
            <Array as="points">
              <mxPoint x="690" y="330" />
              <mxPoint x="690" y="369" />
            </Array>
          </mxGeometry>
        </mxCell>
        <mxCell id="ptQBcOdwvcAxHng0FQHU-12" value="Status" style="html=1;verticalAlign=bottom;endArrow=open;dashed=1;endSize=8;labelBackgroundColor=none;fontFamily=Verdana;fontSize=12;entryX=0.75;entryY=0.999;entryDx=0;entryDy=0;entryPerimeter=0;" edge="1" parent="1" target="7baba1c4bc27f4b0-16">
          <mxGeometry relative="1" as="geometry">
            <mxPoint x="635.5" y="429.75" as="targetPoint" />
            <mxPoint x="795.5" y="429.75" as="sourcePoint" />
          </mxGeometry>
        </mxCell>
        <mxCell id="ptQBcOdwvcAxHng0FQHU-14" value="manageBook" style="shape=umlFrame;whiteSpace=wrap;html=1;pointerEvents=0;fontFamily=Verdana;fontSize=12;fontColor=default;labelBackgroundColor=none;width=100;height=25;" vertex="1" parent="1">
          <mxGeometry x="50" y="205" width="793" height="245" as="geometry" />
        </mxCell>
        <mxCell id="ptQBcOdwvcAxHng0FQHU-28" value="Sell / lend Book" style="shape=umlFrame;whiteSpace=wrap;html=1;pointerEvents=0;fontFamily=Verdana;fontSize=12;fontColor=default;labelBackgroundColor=none;width=90;height=40;" vertex="1" parent="1">
          <mxGeometry x="50" y="490" width="790" height="270" as="geometry" />
        </mxCell>
        <mxCell id="ptQBcOdwvcAxHng0FQHU-32" value="" style="html=1;points=[];perimeter=orthogonalPerimeter;rounded=0;shadow=0;comic=0;labelBackgroundColor=none;strokeWidth=1;fontFamily=Verdana;fontSize=12;align=center;" vertex="1" parent="1">
          <mxGeometry x="450" y="850" width="10" height="180" as="geometry" />
        </mxCell>
        <mxCell id="ptQBcOdwvcAxHng0FQHU-40" value="Data" style="html=1;verticalAlign=bottom;endArrow=open;dashed=1;endSize=8;labelBackgroundColor=none;fontFamily=Verdana;fontSize=12;" edge="1" parent="1" source="7baba1c4bc27f4b0-5">
          <mxGeometry relative="1" as="geometry">
            <mxPoint x="460" y="1000" as="targetPoint" />
            <mxPoint x="728" y="1001" as="sourcePoint" />
          </mxGeometry>
        </mxCell>
        <mxCell id="ptQBcOdwvcAxHng0FQHU-15" value="" style="html=1;points=[];perimeter=orthogonalPerimeter;rounded=0;shadow=0;comic=0;labelBackgroundColor=none;strokeWidth=1;fontFamily=Verdana;fontSize=12;align=center;" vertex="1" parent="1">
          <mxGeometry x="158" y="530" width="10" height="190" as="geometry" />
        </mxCell>
        <mxCell id="ptQBcOdwvcAxHng0FQHU-44" value="status" style="html=1;verticalAlign=bottom;endArrow=block;labelBackgroundColor=none;fontFamily=Verdana;fontSize=12;edgeStyle=elbowEdgeStyle;elbow=vertical;exitX=1.332;exitY=0.911;exitDx=0;exitDy=0;exitPerimeter=0;dashed=1;" edge="1" parent="1" source="ptQBcOdwvcAxHng0FQHU-42">
          <mxGeometry relative="1" as="geometry">
            <mxPoint x="605" y="924.9499999999999" as="sourcePoint" />
            <mxPoint x="800" y="926" as="targetPoint" />
          </mxGeometry>
        </mxCell>
        <mxCell id="ptQBcOdwvcAxHng0FQHU-39" value="fetchData()" style="html=1;verticalAlign=bottom;endArrow=block;labelBackgroundColor=none;fontFamily=Verdana;fontSize=12;edgeStyle=elbowEdgeStyle;elbow=vertical;exitX=1.17;exitY=0.014;exitDx=0;exitDy=0;exitPerimeter=0;" edge="1" parent="1" source="ptQBcOdwvcAxHng0FQHU-32" target="7baba1c4bc27f4b0-5">
          <mxGeometry relative="1" as="geometry">
            <mxPoint x="625.5" y="850.53" as="sourcePoint" />
            <mxPoint x="798" y="850.47" as="targetPoint" />
          </mxGeometry>
        </mxCell>
        <mxCell id="ptQBcOdwvcAxHng0FQHU-45" value="Track Order" style="shape=umlFrame;whiteSpace=wrap;html=1;pointerEvents=0;fontFamily=Verdana;fontSize=12;fontColor=default;labelBackgroundColor=none;width=90;height=40;" vertex="1" parent="1">
          <mxGeometry x="51.5" y="810" width="1028.5" height="510" as="geometry" />
        </mxCell>
        <mxCell id="ptQBcOdwvcAxHng0FQHU-47" value="withDraw()" style="html=1;verticalAlign=bottom;endArrow=block;labelBackgroundColor=none;fontFamily=Verdana;fontSize=12;edgeStyle=elbowEdgeStyle;elbow=vertical;exitX=1.17;exitY=0.014;exitDx=0;exitDy=0;exitPerimeter=0;" edge="1" parent="1">
          <mxGeometry relative="1" as="geometry">
            <mxPoint x="178" y="1070" as="sourcePoint" />
            <mxPoint x="300" y="1070" as="targetPoint" />
          </mxGeometry>
        </mxCell>
        <mxCell id="ptQBcOdwvcAxHng0FQHU-48" value="" style="html=1;points=[];perimeter=orthogonalPerimeter;rounded=0;shadow=0;comic=0;labelBackgroundColor=none;strokeWidth=1;fontFamily=Verdana;fontSize=12;align=center;" vertex="1" parent="1">
          <mxGeometry x="448" y="1060" width="10" height="80" as="geometry" />
        </mxCell>
        <mxCell id="ptQBcOdwvcAxHng0FQHU-49" value="checkOrders()" style="html=1;verticalAlign=bottom;endArrow=block;labelBackgroundColor=none;fontFamily=Verdana;fontSize=12;elbow=vertical;edgeStyle=orthogonalEdgeStyle;curved=1;entryX=1.104;entryY=0.66;entryDx=0;entryDy=0;entryPerimeter=0;labelPosition=right;verticalLabelPosition=top;align=left;" edge="1" parent="1">
          <mxGeometry relative="1" as="geometry">
            <mxPoint x="460" y="1070" as="sourcePoint" />
            <mxPoint x="460" y="1114.47" as="targetPoint" />
            <Array as="points">
              <mxPoint x="500" y="1070" />
              <mxPoint x="500" y="1115" />
            </Array>
          </mxGeometry>
        </mxCell>
        <mxCell id="ptQBcOdwvcAxHng0FQHU-50" value="status" style="html=1;verticalAlign=bottom;endArrow=block;labelBackgroundColor=none;fontFamily=Verdana;fontSize=12;edgeStyle=elbowEdgeStyle;elbow=vertical;exitX=-0.032;exitY=0.967;exitDx=0;exitDy=0;exitPerimeter=0;dashed=1;entryX=1.251;entryY=0.709;entryDx=0;entryDy=0;entryPerimeter=0;" edge="1" parent="1" source="ptQBcOdwvcAxHng0FQHU-48" target="ptQBcOdwvcAxHng0FQHU-51">
          <mxGeometry relative="1" as="geometry">
            <mxPoint x="460" y="1130" as="sourcePoint" />
            <mxPoint x="370" y="1137" as="targetPoint" />
          </mxGeometry>
        </mxCell>
        <mxCell id="ptQBcOdwvcAxHng0FQHU-51" value="" style="html=1;points=[];perimeter=orthogonalPerimeter;rounded=0;shadow=0;comic=0;labelBackgroundColor=none;strokeWidth=1;fontFamily=Verdana;fontSize=12;align=center;" vertex="1" parent="1">
          <mxGeometry x="298" y="1060" width="10" height="110" as="geometry" />
        </mxCell>
        <mxCell id="ptQBcOdwvcAxHng0FQHU-52" value="dispatch" style="html=1;verticalAlign=bottom;endArrow=block;labelBackgroundColor=none;fontFamily=Verdana;fontSize=12;edgeStyle=elbowEdgeStyle;elbow=vertical;" edge="1" parent="1">
          <mxGeometry relative="1" as="geometry">
            <mxPoint x="308" y="1071" as="sourcePoint" />
            <mxPoint x="448" y="1070" as="targetPoint" />
          </mxGeometry>
        </mxCell>
        <mxCell id="ptQBcOdwvcAxHng0FQHU-53" value="dispatch" style="html=1;verticalAlign=bottom;endArrow=block;labelBackgroundColor=none;fontFamily=Verdana;fontSize=12;edgeStyle=elbowEdgeStyle;elbow=vertical;" edge="1" parent="1">
          <mxGeometry relative="1" as="geometry">
            <mxPoint x="308" y="1170" as="sourcePoint" />
            <mxPoint x="795" y="1170" as="targetPoint" />
          </mxGeometry>
        </mxCell>
        <mxCell id="ptQBcOdwvcAxHng0FQHU-55" value="" style="html=1;points=[];perimeter=orthogonalPerimeter;rounded=0;shadow=0;comic=0;labelBackgroundColor=none;strokeWidth=1;fontFamily=Verdana;fontSize=12;align=center;" vertex="1" parent="1">
          <mxGeometry x="798" y="1170" width="10" height="50" as="geometry" />
        </mxCell>
        <mxCell id="ptQBcOdwvcAxHng0FQHU-56" value="releaseFund()" style="html=1;verticalAlign=bottom;endArrow=block;labelBackgroundColor=none;fontFamily=Verdana;fontSize=12;edgeStyle=elbowEdgeStyle;elbow=vertical;" edge="1" parent="1">
          <mxGeometry relative="1" as="geometry">
            <mxPoint x="808" y="1181" as="sourcePoint" />
            <mxPoint x="960" y="1180" as="targetPoint" />
          </mxGeometry>
        </mxCell>
        <mxCell id="ptQBcOdwvcAxHng0FQHU-57" value="Status" style="html=1;verticalAlign=bottom;endArrow=open;dashed=1;endSize=8;labelBackgroundColor=none;fontFamily=Verdana;fontSize=12;" edge="1" parent="1">
          <mxGeometry relative="1" as="geometry">
            <mxPoint x="810" y="1220" as="targetPoint" />
            <mxPoint x="960" y="1220" as="sourcePoint" />
          </mxGeometry>
        </mxCell>
        <mxCell id="ptQBcOdwvcAxHng0FQHU-58" value="withdrawStatus" style="html=1;verticalAlign=bottom;endArrow=open;dashed=1;endSize=8;labelBackgroundColor=none;fontFamily=Verdana;fontSize=12;exitX=0.2;exitY=1.02;exitDx=0;exitDy=0;exitPerimeter=0;" edge="1" parent="1" source="ptQBcOdwvcAxHng0FQHU-55" target="7baba1c4bc27f4b0-8">
          <mxGeometry relative="1" as="geometry">
            <mxPoint x="610" y="1220.25" as="targetPoint" />
            <mxPoint x="782.5" y="1220" as="sourcePoint" />
          </mxGeometry>
        </mxCell>
        <mxCell id="ptQBcOdwvcAxHng0FQHU-59" value="payment()" style="html=1;verticalAlign=bottom;endArrow=block;labelBackgroundColor=none;fontFamily=Verdana;fontSize=12;elbow=vertical;edgeStyle=orthogonalEdgeStyle;curved=1;entryX=1.064;entryY=0.773;entryDx=0;entryDy=0;entryPerimeter=0;labelPosition=right;verticalLabelPosition=top;align=left;" edge="1" parent="1" target="ptQBcOdwvcAxHng0FQHU-54">
          <mxGeometry relative="1" as="geometry">
            <mxPoint x="970" y="1190" as="sourcePoint" />
            <mxPoint x="970" y="1234.47" as="targetPoint" />
            <Array as="points">
              <mxPoint x="990" y="1190" />
              <mxPoint x="990" y="1211" />
            </Array>
          </mxGeometry>
        </mxCell>
        <mxCell id="ptQBcOdwvcAxHng0FQHU-60" value="Cash Withdraw" style="shape=umlFrame;whiteSpace=wrap;html=1;pointerEvents=0;fontFamily=Verdana;fontSize=12;fontColor=default;labelBackgroundColor=none;width=60;height=70;" vertex="1" parent="1">
          <mxGeometry x="80" y="1040" width="980" height="240" as="geometry" />
        </mxCell>
      </root>
    </mxGraphModel>
  </diagram>
</mxfile>
